#!OML:ASF F:\VICON\USERDATA\INSTALL\rory3\rory3.ASF
:FULLY-SPECIFIED
:DEGREES
3575
root 0.442059 18.3797 1.81789 -1.10544 -42.6496 4.98933
lowerback 9.59434 -6.43907 -1.33825
upperback 3.75092 -8.67571 3.41891
thorax -0.687222 -4.4199 5.10798
lowerneck -9.80451 -8.48681 -8.6499
upperneck 15.4963 -13.3679 15.9809
head 8.10382 -5.71945 5.26146
rclavicle -3.57812e-014 -1.66979e-014
rhumerus -0.614185 42.2197 -56.9395
rradius 70.7296
rwrist 41.112
rhand -29.662 348.969
rfingers 7.12502
rthumb -2.99106 -40.9893
lclavicle -3.57812e-014 -1.66979e-014
lhumerus 38.893 -62.4692 66.9698
lradius 38.5954
lwrist -28.1218
lhand -39.636 43.6416
lfingers 7.12502
lthumb -12.6168 73.2406
rfemur -28.0397 29.8097 0.951036
rtibia 27.6657
rfoot -6.83751 -7.17238
rtoes -13.2398
lfemur -3.34501 12.8889 -20.1938
ltibia 26.8727
lfoot -24.6137 28.304
ltoes -2.85541
3576
root 0.394846 18.3816 1.84046 -1.24786 -43.2568 5.47609
lowerback 9.51026 -6.57898 -1.36134
upperback 3.82663 -8.86809 3.37524
thorax -0.547439 -4.52061 5.0724
lowerneck -10.0474 -8.39508 -8.54912
upperneck 15.632 -13.218 15.7667
head 8.14871 -5.64201 5.18511
rclavicle -5.80451e-014 1.03368e-014
rhumerus -0.180774 42.104 -56.9044
rradius 70.2039
rwrist 40.194
rhand -29.3348 348.908
rfingers 7.12502
rthumb -2.67509 -41.0546
lclavicle -5.80451e-014 1.03368e-014
lhumerus 39.804 -62.4053 66.3318
lradius 36.8747
lwrist -32.258
lhand -41.868 43.2504
lfingers 7.12502
lthumb -14.768 72.7042
rfemur -28.5222 30.0048 0.543842
rtibia 27.9743
rfoot -6.78376 -6.65455
rtoes -14.5121
lfemur -3.17253 13.0094 -20.5901
ltibia 26.6241
lfoot -25.0687 28.6887
ltoes -2.77485
3577
root 0.346794 18.3844 1.85943 -1.42784 -43.7895 6.09169
lowerback 9.40239 -6.67693 -1.4981
upperback 3.90659 -9.01469 3.31973
thorax -0.379155 -4.6003 5.07797
lowerneck -10.4122 -8.35991 -8.44807
upperneck 15.7237 -13.1597 15.6724
head 8.22429 -5.59419 5.1321
rclavicle 8.42847e-014 -1.74931e-014
rhumerus 0.131658 41.8804 -56.8638
rradius 69.7722
rwrist 38.5456
rhand -28.4722 348.985
rfingers 7.12502
rthumb -1.84194 -40.9868
lclavicle 8.42847e-014 -1.74931e-014
lhumerus 42.0736 -62.9109 64.2734
lradius 36.3123
lwrist -32.0551
lhand -41.6856 43.7468
lfingers 7.12502
lthumb -14.5922 73.2135
rfemur -29.0995 30.1977 -0.0132999
rtibia 28.3384
rfoot -7.0752 -6.37018
rtoes -13.9552
lfemur -3.03173 13.1145 -21.092
ltibia 26.2954
lfoot -25.3153 29.0155
ltoes -2.4503
3578
root 0.298171 18.3816 1.87785 -1.69249 -44.2906 6.73613
lowerback 9.41365 -6.79594 -1.64134
upperback 3.95704 -9.18769 3.25885
thorax -0.3032 -4.69082 5.1017
lowerneck -10.7381 -8.28621 -8.41598
upperneck 15.8565 -13.0456 15.5839
head 8.30387 -5.52452 5.10251
rclavicle -4.33351e-014 -2.62396e-014
rhumerus 0.511603 41.5771 -56.7502
rradius 68.9307
rwrist 37.3838
rhand -29.5858 350.386
rfingers 7.12502
rthumb -2.91745 -39.5738
lclavicle -4.33351e-014 -2.62396e-014
lhumerus 43.8998 -63.2581 62.6758
lradius 36.006
lwrist -31.0991
lhand -41.2003 44.4186
lfingers 7.12502
lthumb -14.1246 73.9185
rfemur -29.6042 30.2888 -0.510664
rtibia 28.7088
rfoot -7.33743 -6.00831
rtoes -13.7367
lfemur -2.83882 13.3105 -21.5679
ltibia 25.9474
lfoot -25.2325 29.3538
ltoes -2.67755
